<?xml version="1.0" encoding="UTF-8" standalone="no"?>
<!-- Created with Inkscape (http://www.inkscape.org/) -->

<svg
   width="256mm"
   height="256mm"
   viewBox="0 0 256 256"
   version="1.1"
   id="svg5"
   inkscape:version="1.1.2 (b8e25be833, 2022-02-05)"
   sodipodi:docname="help.svg"
   xmlns:inkscape="http://www.inkscape.org/namespaces/inkscape"
   xmlns:sodipodi="http://sodipodi.sourceforge.net/DTD/sodipodi-0.dtd"
   xmlns="http://www.w3.org/2000/svg"
   xmlns:svg="http://www.w3.org/2000/svg">
  <sodipodi:namedview
     id="namedview7"
     pagecolor="#505050"
     bordercolor="#ffffff"
     borderopacity="1"
     inkscape:pageshadow="0"
     inkscape:pageopacity="0"
     inkscape:pagecheckerboard="1"
     inkscape:document-units="mm"
     showgrid="false"
     fit-margin-top="0"
     fit-margin-left="0"
     fit-margin-right="0"
     fit-margin-bottom="0"
     showguides="false"
     inkscape:zoom="0.77771465"
     inkscape:cx="301.52447"
     inkscape:cy="469.96672"
     inkscape:window-width="2560"
     inkscape:window-height="1361"
     inkscape:window-x="-9"
     inkscape:window-y="-9"
     inkscape:window-maximized="1"
     inkscape:current-layer="layer1" />
  <defs
     id="defs2" />
  <g
     inkscape:label="Layer 1"
     inkscape:groupmode="layer"
     id="layer1"
     transform="translate(184.21649,138.28867)">
    <path
       id="path872"
       style="opacity:1;fill:#ffffff;fill-opacity:1;stroke:none;stroke-width:0;stroke-miterlimit:4;stroke-dasharray:none;paint-order:stroke fill markers"
       d="M 483.7793 0 A 483.77953 483.77953 0 0 0 0 483.7793 A 483.77953 483.77953 0 0 0 483.7793 967.55859 A 483.77953 483.77953 0 0 0 967.55859 483.7793 A 483.77953 483.77953 0 0 0 483.7793 0 z M 488.44727 189.29688 C 526.05182 189.29687 559.24822 196.29828 588.03516 210.30273 C 616.82209 224.04785 638.99613 242.85149 654.55664 266.71094 C 670.37649 290.57038 678.28516 316.50476 678.28516 344.51367 C 678.28516 366.55772 673.74688 385.87869 664.66992 402.47656 C 655.8523 419.07444 645.21989 433.46719 632.77148 445.65625 C 620.58242 457.58597 598.53771 477.8142 566.63867 506.3418 C 557.82105 514.38139 550.69032 521.51408 545.24414 527.73828 C 540.05731 533.70314 536.16568 539.27801 533.57227 544.46484 C 530.97885 549.39234 528.90566 554.44988 527.34961 559.63672 C 526.0529 564.56421 523.97776 573.3821 521.125 586.08984 C 516.19751 613.06139 500.76621 626.54688 474.83203 626.54688 C 461.34626 626.54688 449.93591 622.13793 440.59961 613.32031 C 431.52265 604.50269 426.98438 591.40715 426.98438 574.03125 C 426.98438 552.24654 430.35477 533.4429 437.09766 517.62305 C 443.84054 501.54386 452.78776 487.5391 463.93945 475.60938 C 475.09115 463.42031 490.1325 449.02756 509.06445 432.42969 C 525.66233 417.90655 537.5939 407.01352 544.85547 399.75195 C 552.37638 392.23104 558.59985 383.93243 563.52734 374.85547 C 568.71418 365.77851 571.30664 355.92403 571.30664 345.29102 C 571.30664 324.54367 563.5273 307.03724 547.9668 292.77344 C 532.66563 278.50964 512.82539 271.37891 488.44727 271.37891 C 459.91967 271.37891 438.91351 278.64092 425.42773 293.16406 C 411.94196 307.42786 400.53162 328.56335 391.19531 356.57227 C 382.37769 385.87789 365.64919 400.53125 341.01172 400.53125 C 326.48858 400.53125 314.16902 395.4737 304.05469 385.35938 C 294.1997 374.9857 289.27344 363.83402 289.27344 351.9043 C 289.27344 327.26683 297.18406 302.36904 313.00391 277.21289 C 328.82375 251.7974 351.90506 230.79123 382.24805 214.19336 C 412.59104 197.59549 447.98995 189.29688 488.44727 189.29688 z M 479.11133 661.94727 C 495.44986 661.94727 509.19596 667.52408 520.34766 678.67578 C 531.49935 689.82748 537.07422 703.57162 537.07422 719.91016 C 537.07422 738.06408 531.23874 752.3275 519.56836 762.70117 C 507.89798 773.07484 494.41249 778.26172 479.11133 778.26172 C 463.29148 778.26172 449.41605 773.20417 437.48633 763.08984 C 425.81595 752.71617 419.98047 738.32342 419.98047 719.91016 C 419.98047 703.57162 425.68662 689.82748 437.09766 678.67578 C 448.50869 667.52408 462.51345 661.94727 479.11133 661.94727 z "
       transform="matrix(0.26458333,0,0,0.26458333,-184.21649,-138.28867)" />
  </g>
</svg>
