<?xml version="1.0" encoding="UTF-8" standalone="no"?>
<svg
   viewBox="0 0 512 512"
   version="1.1"
   id="svg4"
   sodipodi:docname="max.svg"
   inkscape:version="1.1.2 (b8e25be833, 2022-02-05)"
   xmlns:inkscape="http://www.inkscape.org/namespaces/inkscape"
   xmlns:sodipodi="http://sodipodi.sourceforge.net/DTD/sodipodi-0.dtd"
   xmlns="http://www.w3.org/2000/svg"
   xmlns:svg="http://www.w3.org/2000/svg">
  <defs
     id="defs8" />
  <sodipodi:namedview
     id="namedview6"
     pagecolor="#505050"
     bordercolor="#ffffff"
     borderopacity="1"
     inkscape:pageshadow="0"
     inkscape:pageopacity="0"
     inkscape:pagecheckerboard="1"
     showgrid="false"
     inkscape:zoom="1.7050781"
     inkscape:cx="256"
     inkscape:cy="256"
     inkscape:window-width="2560"
     inkscape:window-height="1361"
     inkscape:window-x="-9"
     inkscape:window-y="-9"
     inkscape:window-maximized="1"
     inkscape:current-layer="svg4" />
  <!--!Font Awesome Free 6.6.0 by @fontawesome - https://fontawesome.com License - https://fontawesome.com/license/free Copyright 2024 Fonticons, Inc.-->
  <path
     fill="#ffffff"
     d="m 256,0 a 256,-256 0 1 1 0,512 256,-256 0 1 1 0,-512 z m 11.3,395.3 112,-112 c 4.6,-4.6 5.9,-11.5 3.5,-17.4 C 380.4,260 374.5,256 368,256 h -64 v -96 c 0,-17.7 -14.3,-32 -32,-32 h -32 c -17.7,0 -32,14.3 -32,32 v 96 h -64 c -6.5,0 -12.3,3.9 -14.8,9.9 -2.5,6 -1.1,12.9 3.5,17.4 l 112,112 c 6.2,6.2 16.4,6.2 22.6,0 z"
     id="path2" />
</svg>
