<?xml version="1.0" encoding="UTF-8" standalone="no"?>
<svg
   viewBox="0 0 575.95001 448.00586"
   version="1.1"
   id="svg4"
   sodipodi:docname="vol_on.svg"
   width="575.95001"
   height="448.00586"
   inkscape:version="1.1.2 (b8e25be833, 2022-02-05)"
   xmlns:inkscape="http://www.inkscape.org/namespaces/inkscape"
   xmlns:sodipodi="http://sodipodi.sourceforge.net/DTD/sodipodi-0.dtd"
   xmlns="http://www.w3.org/2000/svg"
   xmlns:svg="http://www.w3.org/2000/svg">
  <defs
     id="defs8" />
  <sodipodi:namedview
     id="namedview6"
     pagecolor="#505050"
     bordercolor="#ffffff"
     borderopacity="1"
     inkscape:pageshadow="0"
     inkscape:pageopacity="0"
     inkscape:pagecheckerboard="1"
     showgrid="false"
     fit-margin-top="0"
     fit-margin-left="0"
     fit-margin-right="0"
     fit-margin-bottom="0"
     inkscape:zoom="1.7050781"
     inkscape:cx="268.31615"
     inkscape:cy="273.00802"
     inkscape:window-width="2560"
     inkscape:window-height="1361"
     inkscape:window-x="-9"
     inkscape:window-y="-9"
     inkscape:window-maximized="1"
     inkscape:current-layer="svg4" />
  <!--!Font Awesome Free 6.6.0 by @fontawesome - https://fontawesome.com License - https://fontawesome.com/license/free Copyright 2024 Fonticons, Inc.-->
  <path
     d="m 473.1,74.980858 c 43.2,35.200002 70.9,88.900002 70.9,149.000002 0,60.1 -27.7,113.8 -70.9,149 -10.3,8.4 -25.4,6.8 -33.8,-3.5 -8.4,-10.3 -6.8,-25.4 3.5,-33.8 32.5,-26.4 53.2,-66.6 53.2,-111.7 0,-45.1 -20.7,-85.3 -53.2,-111.8 -10.3,-8.4 -11.8,-23.500002 -3.5,-33.800002 8.3,-10.3 23.5,-11.8 33.8,-3.5 z m -60.5,74.500002 c 21.5,17.6 35.4,44.4 35.4,74.5 0,30.1 -13.9,56.9 -35.4,74.5 -10.3,8.4 -25.4,6.8 -33.8,-3.5 -8.4,-10.3 -6.8,-25.4 3.5,-33.8 10.8,-8.8 17.7,-22.2 17.7,-37.2 0,-15 -6.9,-28.4 -17.7,-37.3 -10.3,-8.4 -11.8,-23.5 -3.5,-33.8 8.3,-10.3 23.5,-11.8 33.8,-3.5 z M 301.1,2.780858 c 11.5,5.2 18.9,16.6 18.9,29.2 V 415.98086 c 0,12.6 -7.4,24 -18.9,29.2 -11.5,5.2 -25,3.1 -34.4,-5.3 l -134.9,-119.9 H 64.000003 c -35.3,0 -64,-28.7 -64,-64 v -64 c 0,-35.3 28.7,-64 64,-64 H 131.8 L 266.7,8.080858 c 9.4,-8.39999997 22.9,-10.4 34.4,-5.3 z"
     id="path2"
     sodipodi:nodetypes="cscscscscccscscscscccsssccssssccc"
     style="fill:#ffffff;fill-opacity:1" />
</svg>
